<svg id="visual" viewBox="0 0 960 540" width="960" height="540" xmlns="http://www.w3.org/2000/svg" xmlns:xlink="http://www.w3.org/1999/xlink" version="1.1"><path d="M0 71L14.5 74.7C29 78.3 58 85.7 87.2 85.7C116.3 85.7 145.7 78.3 174.8 71.2C204 64 233 57 262 57C291 57 320 64 349 63C378 62 407 53 436.2 57.5C465.3 62 494.7 80 523.8 87.2C553 94.3 582 90.7 611 87.2C640 83.7 669 80.3 698 72.3C727 64.3 756 51.7 785.2 49.8C814.3 48 843.7 57 872.8 59.7C902 62.3 931 58.7 945.5 56.8L960 55L960 0L945.5 0C931 0 902 0 872.8 0C843.7 0 814.3 0 785.2 0C756 0 727 0 698 0C669 0 640 0 611 0C582 0 553 0 523.8 0C494.7 0 465.3 0 436.2 0C407 0 378 0 349 0C320 0 291 0 262 0C233 0 204 0 174.8 0C145.7 0 116.3 0 87.2 0C58 0 29 0 14.5 0L0 0Z" fill="#6198ff"></path><path d="M0 109L14.5 121.7C29 134.3 58 159.7 87.2 161.5C116.3 163.3 145.7 141.7 174.8 128.2C204 114.7 233 109.3 262 115.7C291 122 320 140 349 135.5C378 131 407 104 436.2 100.3C465.3 96.7 494.7 116.3 523.8 129.8C553 143.3 582 150.7 611 152.5C640 154.3 669 150.7 698 143.3C727 136 756 125 785.2 125C814.3 125 843.7 136 872.8 135.2C902 134.3 931 121.7 945.5 115.3L960 109L960 53L945.5 54.8C931 56.7 902 60.3 872.8 57.7C843.7 55 814.3 46 785.2 47.8C756 49.7 727 62.3 698 70.3C669 78.3 640 81.7 611 85.2C582 88.7 553 92.3 523.8 85.2C494.7 78 465.3 60 436.2 55.5C407 51 378 60 349 61C320 62 291 55 262 55C233 55 204 62 174.8 69.2C145.7 76.3 116.3 83.7 87.2 83.7C58 83.7 29 76.3 14.5 72.7L0 69Z" fill="#3c80ff"></path><path d="M0 271L14.5 288.2C29 305.3 58 339.7 87.2 335.2C116.3 330.7 145.7 287.3 174.8 276.5C204 265.7 233 287.3 262 302.7C291 318 320 327 349 321.5C378 316 407 296 436.2 278.8C465.3 261.7 494.7 247.3 523.8 250.2C553 253 582 273 611 282C640 291 669 289 698 282.7C727 276.3 756 265.7 785.2 259.3C814.3 253 843.7 251 872.8 245.5C902 240 931 231 945.5 226.5L960 222L960 107L945.5 113.3C931 119.7 902 132.3 872.8 133.2C843.7 134 814.3 123 785.2 123C756 123 727 134 698 141.3C669 148.7 640 152.3 611 150.5C582 148.7 553 141.3 523.8 127.8C494.7 114.3 465.3 94.7 436.2 98.3C407 102 378 129 349 133.5C320 138 291 120 262 113.7C233 107.3 204 112.7 174.8 126.2C145.7 139.7 116.3 161.3 87.2 159.5C58 157.7 29 132.3 14.5 119.7L0 107Z" fill="#0066ff"></path><path d="M0 471L14.5 466.5C29 462 58 453 87.2 448.5C116.3 444 145.7 444 174.8 446.7C204 449.3 233 454.7 262 462.7C291 470.7 320 481.3 349 482.2C378 483 407 474 436.2 470.5C465.3 467 494.7 469 523.8 461.8C553 454.7 582 438.3 611 430.2C640 422 669 422 698 426.5C727 431 756 440 785.2 446.3C814.3 452.7 843.7 456.3 872.8 458.2C902 460 931 460 945.5 460L960 460L960 220L945.5 224.5C931 229 902 238 872.8 243.5C843.7 249 814.3 251 785.2 257.3C756 263.7 727 274.3 698 280.7C669 287 640 289 611 280C582 271 553 251 523.8 248.2C494.7 245.3 465.3 259.7 436.2 276.8C407 294 378 314 349 319.5C320 325 291 316 262 300.7C233 285.3 204 263.7 174.8 274.5C145.7 285.3 116.3 328.7 87.2 333.2C58 337.7 29 303.3 14.5 286.2L0 269Z" fill="#0059dd"></path><path d="M0 541L14.5 541C29 541 58 541 87.2 541C116.3 541 145.7 541 174.8 541C204 541 233 541 262 541C291 541 320 541 349 541C378 541 407 541 436.2 541C465.3 541 494.7 541 523.8 541C553 541 582 541 611 541C640 541 669 541 698 541C727 541 756 541 785.2 541C814.3 541 843.7 541 872.8 541C902 541 931 541 945.5 541L960 541L960 458L945.5 458C931 458 902 458 872.8 456.2C843.7 454.3 814.3 450.7 785.2 444.3C756 438 727 429 698 424.5C669 420 640 420 611 428.2C582 436.3 553 452.7 523.8 459.8C494.7 467 465.3 465 436.2 468.5C407 472 378 481 349 480.2C320 479.3 291 468.7 262 460.7C233 452.7 204 447.3 174.8 444.7C145.7 442 116.3 442 87.2 446.5C58 451 29 460 14.5 464.5L0 469Z" fill="#004cbb"></path></svg>